<?xml version="1.0" standalone="no"?>
<!DOCTYPE svg PUBLIC "-//W3C//DTD SVG 20010904//EN"
 "http://www.w3.org/TR/2001/REC-SVG-20010904/DTD/svg10.dtd">
<svg version="1.0" xmlns="http://www.w3.org/2000/svg"
 width="700.000000pt" height="700.000000pt" viewBox="0 0 700.000000 700.000000"
 preserveAspectRatio="xMidYMid meet">
<metadata>
Created by potrace 1.11, written by Peter Selinger 2001-2013
</metadata>
<g transform="translate(0.000000,700.000000) scale(0.100000,-0.100000)"
fill="#000000" stroke="none">
<path d="M17 6515 c-5 -14 -2 -56 7 -81 6 -20 79 -59 143 -78 27 -8 67 -61 94
-123 19 -43 22 -74 26 -283 6 -267 8 -4077 3 -4685 -2 -220 -8 -413 -12 -430
-5 -16 -11 -41 -14 -54 -8 -39 -33 -80 -60 -98 -27 -17 -52 -32 -133 -76 -33
-18 -51 -34 -52 -47 -1 -11 -2 -30 -2 -42 l-1 -23 959 0 960 0 2 37 c2 33 -2
41 -35 63 -20 14 -40 25 -44 25 -4 0 -30 14 -58 31 -52 32 -80 71 -80 111 0
39 74 170 124 220 7 8 20 27 29 43 8 17 34 50 56 75 22 25 41 50 41 56 0 6 23
37 50 68 28 31 50 61 50 66 0 5 23 32 50 60 28 28 50 56 50 62 0 6 24 39 53
74 28 34 64 82 79 106 31 48 80 113 130 172 18 21 42 53 53 71 30 50 96 132
139 176 36 38 74 49 68 20 -1 -7 7 -30 19 -50 12 -20 38 -65 57 -101 19 -36
47 -85 62 -110 15 -25 30 -57 34 -71 3 -14 18 -43 32 -65 15 -21 31 -53 36
-70 4 -18 19 -48 33 -68 14 -20 25 -50 25 -66 0 -16 6 -35 14 -42 7 -8 17 -28
21 -46 3 -17 11 -34 16 -38 16 -9 239 -466 233 -476 -3 -5 1 -17 9 -26 8 -9
38 -62 67 -117 29 -55 59 -107 66 -116 8 -8 14 -23 14 -32 0 -45 28 -1 116
181 134 276 265 536 308 611 20 35 39 74 42 87 3 13 12 28 20 35 8 6 14 22 14
34 0 13 7 25 15 29 8 3 15 17 15 30 0 14 7 29 15 33 8 5 16 17 17 28 2 11 11
31 21 45 9 13 17 30 17 36 0 6 7 17 15 24 8 7 15 20 15 30 0 10 18 48 40 84
22 36 40 68 40 70 0 2 18 43 40 90 22 47 40 89 40 92 0 21 54 74 74 74 30 0
76 -36 76 -59 0 -10 24 -44 53 -76 28 -32 67 -80 85 -108 47 -71 69 -99 145
-183 37 -41 67 -80 67 -85 0 -6 22 -34 49 -62 26 -29 61 -72 76 -97 15 -25 41
-57 57 -72 16 -15 35 -42 43 -60 8 -18 39 -57 68 -86 30 -28 62 -67 71 -86 8
-18 22 -39 30 -45 8 -7 30 -36 48 -64 18 -29 38 -56 44 -62 6 -5 16 -24 23
-41 7 -18 23 -41 37 -53 13 -11 24 -28 24 -38 0 -9 7 -24 16 -34 23 -26 20
-100 -6 -147 -20 -35 -80 -84 -80 -66 0 4 -10 -2 -22 -13 -13 -11 -33 -26 -46
-32 -19 -10 -23 -19 -20 -49 l3 -37 915 -1 916 0 2 23 c4 47 -15 69 -92 108
-108 55 -156 99 -167 155 -19 88 -21 187 -22 1165 0 912 11 4002 16 4210 2 93
5 102 45 147 21 23 116 78 136 78 4 0 14 7 22 15 9 8 24 15 34 15 20 0 26 18
26 75 l-1 39 -1105 1 -1105 0 0 -55 0 -54 43 -8 c23 -4 49 -14 58 -23 8 -8 23
-15 33 -15 19 0 51 -31 70 -68 34 -65 14 -172 -44 -242 -19 -23 -35 -48 -35
-55 0 -8 -11 -22 -24 -32 -13 -11 -33 -37 -44 -58 -11 -22 -36 -56 -56 -74
-20 -19 -36 -41 -36 -48 0 -7 -17 -32 -39 -56 -21 -23 -51 -62 -66 -87 -15
-25 -39 -56 -53 -70 -13 -14 -33 -44 -43 -67 -10 -24 -22 -43 -27 -43 -4 0
-25 -24 -47 -52 -21 -29 -60 -76 -86 -104 -25 -27 -54 -64 -62 -80 -9 -17 -23
-37 -32 -44 -10 -8 -32 -38 -51 -67 -18 -28 -49 -69 -69 -90 -19 -20 -35 -43
-35 -49 0 -7 -22 -37 -50 -67 -27 -30 -50 -59 -50 -63 0 -5 -16 -27 -36 -49
-20 -22 -48 -58 -62 -80 -14 -22 -47 -64 -74 -93 -26 -30 -48 -59 -48 -66 0
-7 -16 -28 -36 -47 -20 -18 -44 -50 -54 -69 -11 -19 -37 -55 -59 -80 -23 -25
-41 -50 -41 -55 0 -16 -47 -63 -70 -70 -24 -8 -45 7 -70 48 -10 15 -41 55 -71
89 -30 34 -62 75 -73 92 -10 17 -45 59 -77 94 -32 34 -58 67 -56 71 1 5 -14
27 -34 48 -19 21 -49 58 -66 83 -17 25 -48 61 -68 80 -20 19 -45 51 -55 70
-10 19 -28 44 -40 55 -12 11 -30 36 -40 56 -10 19 -38 57 -63 85 -24 27 -55
67 -69 89 -14 22 -44 60 -67 83 -23 24 -53 62 -68 84 -14 23 -38 52 -55 66
-16 13 -37 41 -48 61 -10 20 -35 52 -55 71 -20 19 -46 51 -57 70 -12 19 -42
60 -68 90 -25 30 -61 79 -79 108 -18 28 -37 52 -42 52 -5 0 -9 6 -9 14 0 8
-11 28 -25 44 -62 74 -114 226 -101 295 8 41 80 112 143 142 21 10 43 24 51
31 17 17 23 92 8 101 -18 12 -2255 9 -2259 -2z m5962 -1037 c12 -196 7 -4331
-5 -4352 -11 -18 -14 -16 -57 23 -25 23 -52 56 -61 74 -8 18 -36 54 -61 82
-25 27 -45 55 -45 60 0 6 -25 38 -55 70 -31 33 -64 76 -75 95 -10 19 -44 59
-74 89 -31 30 -56 59 -56 66 0 6 -15 29 -34 51 -18 21 -40 53 -49 69 -8 17
-39 55 -67 85 -28 30 -59 69 -67 85 -9 17 -33 49 -54 72 -22 24 -39 47 -39 53
0 6 -31 44 -70 85 -38 41 -70 78 -70 82 0 5 -25 36 -56 68 -31 33 -64 76 -74
95 -10 19 -30 46 -45 60 -15 14 -35 41 -46 62 -10 20 -39 58 -64 85 -24 26
-47 57 -51 68 -3 11 -25 40 -49 65 -49 52 -61 78 -40 86 8 4 15 14 15 23 0 9
9 30 20 46 11 17 20 37 20 46 0 9 7 19 15 23 8 3 15 14 15 25 0 11 13 39 29
63 15 24 45 83 66 132 52 121 314 637 336 660 5 6 9 17 9 26 0 8 8 27 17 40
10 14 19 34 21 45 1 11 9 23 17 28 8 4 15 19 15 31 0 13 7 26 15 30 8 3 15 17
15 30 0 14 7 29 15 33 8 5 16 18 18 30 2 12 11 31 20 41 9 10 17 28 17 39 0
11 7 26 16 33 16 14 42 69 48 104 3 19 47 121 67 156 5 8 26 51 46 95 60 128
224 448 244 477 11 14 19 34 19 44 0 9 7 25 15 34 9 10 18 28 20 41 3 13 9 25
15 27 5 2 10 9 10 16 0 8 9 25 20 39 11 14 20 34 20 45 0 10 9 27 19 36 11 10
18 23 15 30 -3 7 6 25 20 41 14 16 27 39 30 51 11 43 27 77 33 71 3 -3 8 -52
12 -109z m-5021 82 c7 -12 27 -47 44 -78 16 -31 39 -69 49 -84 11 -14 19 -34
19 -44 0 -9 7 -25 16 -35 8 -9 16 -31 16 -48 1 -17 7 -36 15 -42 7 -6 13 -19
13 -29 0 -9 9 -27 20 -40 11 -13 20 -30 20 -38 0 -8 15 -40 33 -71 44 -73 74
-134 99 -195 10 -27 28 -62 39 -78 11 -15 17 -28 14 -28 -4 0 0 -11 9 -25 9
-13 16 -33 16 -44 0 -11 10 -31 23 -45 13 -14 29 -45 36 -68 7 -24 21 -54 31
-68 9 -14 38 -65 64 -115 27 -49 54 -97 62 -106 8 -8 14 -25 14 -36 0 -11 6
-26 14 -32 8 -7 18 -26 21 -42 4 -16 10 -29 15 -29 5 0 11 -13 15 -29 3 -16
13 -35 21 -42 8 -6 14 -19 14 -29 0 -10 6 -23 14 -29 8 -7 17 -24 21 -39 3
-15 24 -56 45 -92 45 -75 156 -305 166 -343 3 -15 12 -31 20 -38 8 -6 14 -22
14 -36 0 -13 7 -26 15 -29 8 -4 15 -18 15 -33 0 -15 7 -36 15 -47 8 -10 15
-28 15 -39 0 -11 6 -29 14 -40 7 -11 42 -74 76 -140 35 -66 74 -137 87 -157
13 -21 23 -47 23 -58 0 -11 7 -23 15 -26 8 -4 15 -11 15 -16 0 -15 41 -99 58
-120 19 -23 10 -93 -16 -121 -11 -12 -27 -36 -35 -52 -8 -17 -36 -53 -61 -80
-25 -28 -46 -53 -46 -56 0 -4 -22 -35 -50 -69 -27 -34 -50 -65 -50 -69 -1 -3
-25 -33 -55 -66 -30 -33 -55 -65 -55 -71 0 -6 -18 -30 -40 -55 -23 -24 -48
-57 -57 -74 -9 -16 -36 -52 -59 -79 -24 -26 -44 -53 -44 -60 0 -6 -18 -29 -39
-51 -21 -22 -45 -54 -54 -70 -8 -17 -34 -50 -56 -75 -22 -25 -41 -50 -41 -57
0 -7 -23 -34 -51 -60 -28 -26 -62 -68 -77 -93 -14 -25 -41 -62 -59 -83 -18
-20 -33 -41 -33 -47 0 -5 -20 -32 -45 -60 -25 -28 -45 -56 -45 -63 0 -7 -17
-30 -36 -52 -20 -22 -50 -60 -67 -85 -44 -63 -206 -220 -229 -220 -2 0 -5 12
-7 28 -4 40 -7 4286 -3 4490 2 94 6 172 10 172 4 0 13 -9 20 -20z m4265 -184
c11 -27 -33 -136 -53 -136 -6 0 -10 -18 -10 -39 0 -23 -7 -46 -16 -55 -9 -9
-17 -22 -18 -29 -8 -43 -112 -269 -148 -319 -10 -15 -24 -42 -30 -60 -6 -18
-15 -36 -20 -39 -5 -3 -10 -16 -13 -29 -2 -12 -11 -30 -20 -40 -8 -9 -15 -24
-15 -32 0 -9 -7 -21 -15 -28 -8 -7 -15 -21 -15 -31 0 -9 -6 -24 -14 -31 -7 -8
-17 -25 -21 -38 -4 -13 -14 -30 -21 -38 -8 -7 -14 -22 -14 -31 0 -10 -7 -24
-15 -31 -8 -7 -15 -20 -15 -29 0 -9 -9 -29 -20 -46 -11 -16 -39 -66 -61 -110
-23 -44 -50 -92 -60 -106 -10 -14 -21 -37 -24 -52 -4 -14 -13 -31 -21 -38 -8
-6 -14 -22 -14 -34 0 -13 -7 -25 -15 -29 -8 -3 -15 -14 -15 -23 0 -10 -15 -50
-34 -89 -18 -39 -41 -95 -49 -125 -9 -30 -34 -84 -57 -121 -22 -37 -40 -74
-40 -82 0 -8 -7 -21 -15 -30 -8 -8 -16 -24 -18 -35 -2 -11 -11 -29 -20 -39 -9
-10 -17 -26 -17 -35 0 -24 -18 -30 -43 -14 -36 24 -88 80 -107 117 -10 19 -34
51 -54 69 -20 19 -36 40 -36 47 0 6 -15 27 -32 45 -75 77 -86 119 -42 160 14
13 33 37 41 54 9 16 31 44 49 61 18 18 42 50 53 71 11 22 27 45 36 53 9 8 25
30 35 49 10 20 40 58 65 85 26 27 61 72 79 100 18 28 45 62 60 75 14 14 26 30
26 36 0 7 23 38 50 69 28 31 50 60 50 64 0 4 23 32 50 62 27 30 50 60 50 66 0
7 20 34 44 60 23 27 50 63 59 79 8 17 29 45 46 63 17 19 39 48 47 65 9 18 39
55 65 84 27 28 49 56 49 61 0 5 23 34 50 63 28 29 50 59 50 65 0 7 20 34 44
60 23 27 50 63 59 79 21 38 47 68 72 83 26 15 32 15 38 -2z m-3405 -35 c34
-36 102 -126 127 -166 11 -16 38 -51 62 -77 24 -26 43 -51 43 -56 0 -5 32 -45
70 -88 39 -43 70 -83 70 -89 0 -6 16 -27 36 -46 20 -18 43 -47 51 -64 9 -16
39 -54 68 -85 29 -30 59 -69 68 -85 8 -17 34 -51 56 -75 23 -25 41 -50 41 -57
0 -7 27 -41 60 -76 33 -36 60 -69 60 -74 0 -5 25 -36 55 -69 31 -32 63 -72 72
-89 8 -16 35 -51 59 -77 24 -26 44 -52 44 -58 0 -5 24 -37 54 -69 30 -33 66
-77 80 -98 13 -21 45 -60 70 -88 25 -27 46 -55 46 -63 0 -23 -29 -70 -75 -122
-25 -28 -45 -55 -45 -61 0 -5 -15 -24 -34 -42 -19 -18 -48 -57 -66 -85 -56
-91 -132 -123 -145 -62 -4 17 -11 30 -16 30 -5 0 -12 12 -15 28 -4 15 -24 56
-44 92 -21 36 -68 126 -105 200 -91 182 -202 396 -232 448 -14 23 -22 42 -18
42 4 0 0 11 -9 25 -9 13 -16 38 -16 55 0 16 -4 30 -10 30 -5 0 -10 11 -10 24
0 14 -7 32 -16 40 -8 9 -17 25 -19 37 -3 12 -11 29 -20 39 -8 9 -15 24 -15 32
0 9 -7 21 -15 28 -8 7 -15 20 -15 30 0 10 -6 23 -14 29 -8 7 -18 26 -21 42 -4
16 -10 29 -15 29 -5 0 -11 13 -15 29 -3 16 -13 35 -21 42 -8 6 -14 21 -14 32
0 11 -6 28 -14 36 -13 15 -78 132 -119 216 -11 22 -30 57 -43 77 -13 21 -24
46 -24 57 0 10 -7 21 -15 25 -8 3 -15 14 -15 25 0 11 -7 26 -15 35 -8 8 -15
20 -15 26 0 6 -9 28 -19 48 -42 82 -45 90 -31 107 18 21 28 19 58 -14z m1716
-2180 c10 -11 25 -33 34 -50 9 -17 35 -50 58 -73 23 -24 52 -61 66 -83 14 -22
38 -53 53 -70 14 -16 37 -46 49 -65 13 -19 40 -53 60 -75 51 -55 65 -85 55
-112 -5 -13 -12 -23 -17 -23 -5 0 -14 -19 -21 -41 -7 -23 -48 -118 -92 -212
-43 -95 -79 -178 -79 -185 0 -7 -11 -28 -24 -45 -13 -18 -30 -50 -37 -72 -7
-22 -23 -53 -35 -70 -12 -16 -27 -49 -33 -71 -6 -23 -18 -45 -26 -48 -8 -3
-15 -12 -15 -19 0 -8 -7 -21 -16 -28 -14 -11 -20 -10 -40 14 -13 16 -24 37
-24 48 0 11 -7 22 -15 25 -8 4 -15 14 -15 24 0 10 -7 25 -15 34 -8 8 -15 21
-15 29 0 8 -9 26 -20 40 -11 14 -20 34 -20 45 0 10 -9 27 -20 37 -11 10 -27
41 -35 68 -8 28 -21 57 -29 66 -20 22 -76 136 -76 154 0 22 -80 177 -91 177
-17 0 -9 47 14 77 12 17 38 52 57 79 19 26 47 61 61 78 15 17 41 55 59 83 17
29 37 56 44 60 7 5 25 26 42 48 16 22 48 64 72 93 23 29 42 59 42 67 0 21 24
19 44 -4z"/>
</g>
</svg>
