<?xml version="1.0" encoding="utf-8"?>
<svg xmlns="http://www.w3.org/2000/svg" style="margin: auto; background: rgba(255, 251, 243, 0); display: block; shape-rendering: auto;" width="280" height="250" preserveAspectRatio="xMidYMid">
<style type="text/css">
  text {
    text-anchor: middle; font-size: 100px; opacity: 0;
  }
</style>
<g style="transform-origin: 140px 125px; transform: scale(1.1875);">
<g transform="translate(140,125)">
  <g transform="translate(0,0)"><g class="path" style="transform: matrix(1, 0, 0, 1, 0, 99.5); opacity: 0.05; transform-origin: 3.28px -5.54881px; animation: 1.1236s linear 0s 1 normal forwards running float-btt-in-2aa4d062-5d5a-4694-803c-771ec1c2e77b;"><path d="M64.64-13.04L64.64-13.04L64.64-59.04L40.48 2.40L38.40 2.40L15.12-57.04L15.12-13.04L15.12-13.04Q15.12-6.72 15.44-3.68L15.44-3.68L22.88-2.72L22.88-2.72Q23.36-1.28 22.88 0.16L22.88 0.16L22.88 0.16Q16 0 13.12 0L13.12 0L13.12 0Q8.32 0 3.44 0.24L3.44 0.24L3.44 0.24Q3.12-1.52 3.44-2.72L3.44-2.72L10.72-3.52L10.72-50.64L10.72-50.64Q10.72-56.96 10.40-60L10.40-60L3.76-60.96L3.76-60.96Q3.28-62.32 3.76-63.68L3.76-63.68L21.36-63.68L41.44-11.04L62-63.68L62-63.68Q63.84-63.60 67.60-63.60L67.60-63.60L67.60-63.60Q68.40-63.60 80.16-63.84L80.16-63.84L80.16-63.84Q80.64-62.40 80.16-60.96L80.16-60.96L73.52-60L73.52-60Q73.20-56.96 73.20-50.64L73.20-50.64L73.20-3.52L79.68-2.72L79.68-2.72Q80-1.52 79.68 0.24L79.68 0.24L79.68 0.24Q74.64 0 68.72 0L68.72 0L68.72 0Q64.40 0 57.68 0.16L57.68 0.16L57.68 0.16Q57.20-1.84 57.68-2.72L57.68-2.72L64.32-3.68L64.32-3.68Q64.64-6.72 64.64-13.04" 
  fill="#ffbb00" stroke="none" stroke-width="none" transform="translate(-38.55999755859375,25.1711962890625)" style="fill: rgb(255, 187, 0);"></path></g></g>
</g>
</g>
<style id="float-btt-in-2aa4d062-5d5a-4694-803c-771ec1c2e77b" data-anikit="">@keyframes float-btt-in-2aa4d062-5d5a-4694-803c-771ec1c2e77b
{
  0% {
    animation-timing-function: cubic-bezier(0.2242,0.7499,0.3142,0.8148);
    transform: translate(0px,99.5px) rotate(0deg) scale(1,1) skewX(0deg) skewY(0deg);
    opacity: 0.05;
  }
  100% {
    transform: translate(0px,0px) rotate(0deg) scale(1,1) skewX(0deg) skewY(0deg);
    opacity: 1;
  }
}</style></svg>